<svg width="32" height="32" viewBox="0 0 32 32" fill="none" xmlns="http://www.w3.org/2000/svg">
<path fill-rule="evenodd" clip-rule="evenodd" d="M29.3067 2.68272C30.1124 3.48684 30.741 4.45005 31.1524 5.51072C31.6267 6.76908 31.8798 8.09978 31.9005 9.44415C32 11.1421 32 11.6921 32 16.0265C32 20.3609 31.9769 20.902 31.9005 22.6088C31.8738 23.936 31.6233 25.2453 31.1559 26.4873C30.744 27.5478 30.1152 28.511 29.3096 29.3153C28.504 30.1197 27.5393 30.7475 26.4771 31.1588C25.2336 31.6239 23.9202 31.8752 22.5926 31.9022C20.8956 31.9998 20.3394 31.9998 16 31.9998C11.6606 31.9998 11.1186 31.9767 9.40738 31.9022C8.07707 31.8585 6.76399 31.5885 5.52466 31.1038C4.46213 30.6932 3.49707 30.0658 2.69114 29.2617C1.8852 28.4577 1.25611 27.4946 0.844069 26.434C0.376721 25.1903 0.126166 23.881 0.0995113 22.5538C0 20.8559 0 20.3041 0 15.9715C0 11.6371 0.0231008 11.0959 0.0995113 9.38915C0.125481 8.06352 0.377263 6.75198 0.844069 5.51072C1.25496 4.44978 1.88344 3.48631 2.68918 2.68213C3.49492 1.87795 4.46013 1.25082 5.52288 0.840979C6.76456 0.373653 8.0771 0.121634 9.40382 0.0958075C11.1008 0 11.657 0 15.9965 0C20.3359 0 20.8778 0.0212904 22.5891 0.0958075C23.9168 0.123026 25.2303 0.374993 26.4736 0.840979C27.536 1.2513 28.501 1.8786 29.3067 2.68272ZM28.4354 25.4174C28.7896 24.458 28.9766 23.445 28.988 22.4225V22.4243H29.0076C29.084 20.7282 29.084 20.2633 29.084 15.9413C29.084 11.6176 29.0644 11.1439 28.988 9.45657C28.9715 8.44555 28.7846 7.44452 28.4354 6.49541C28.1683 5.80536 27.7598 5.17869 27.2358 4.6556C26.7119 4.13251 26.0843 3.72456 25.3932 3.45795C24.4431 3.105 23.4392 2.91834 22.4256 2.90617C20.7072 2.80858 20.263 2.80858 15.9325 2.80858C11.602 2.80858 11.1275 2.82987 9.43759 2.90617C8.42475 2.9203 7.42175 3.1069 6.47179 3.45795C5.06975 3.99376 3.95913 5.09555 3.41715 6.49541C3.06292 7.45423 2.87599 8.4666 2.86451 9.48851C2.77032 11.2077 2.77032 11.6495 2.77032 15.9733C2.77032 20.2953 2.78809 20.7708 2.86451 22.4563C2.88105 23.4673 3.06788 24.4683 3.41715 25.4174C3.68518 26.1087 4.09556 26.7361 4.62175 27.259C5.14794 27.7819 5.77821 28.1887 6.47179 28.4531C7.42128 28.8058 8.42457 28.9925 9.43759 29.0049C11.1577 29.1025 11.6002 29.1025 15.9325 29.1025C20.2612 29.1025 20.7375 29.083 22.4256 29.0049C23.4391 28.9918 24.4429 28.8052 25.3932 28.4531C26.0843 28.1871 26.7121 27.7795 27.236 27.2567C27.76 26.7339 28.1685 26.1074 28.4354 25.4174ZM24.5304 9.36861C25.5888 9.36861 26.4468 8.51231 26.4468 7.45601C26.4468 6.3997 25.5888 5.5434 24.5304 5.5434C23.472 5.5434 22.6139 6.3997 22.6139 7.45601C22.6139 8.51231 23.472 9.36861 24.5304 9.36861ZM15.9875 7.75694C13.8083 7.75694 11.7183 8.62129 10.1774 10.1598C8.63642 11.6984 7.77072 13.7851 7.77072 15.9609C7.77072 18.1368 8.63642 20.2235 10.1774 21.762C11.7183 23.3006 13.8083 24.1649 15.9875 24.1649C18.1667 24.1649 20.2567 23.3006 21.7977 21.762C23.3386 20.2235 24.2043 18.1368 24.2043 15.9609C24.2043 13.7851 23.3386 11.6984 21.7977 10.1598C20.2567 8.62129 18.1667 7.75694 15.9875 7.75694ZM15.9875 21.2889C14.5718 21.2889 13.214 20.7274 12.2129 19.7278C11.2118 18.7283 10.6494 17.3727 10.6494 15.9591C10.6494 14.5456 11.2118 13.19 12.2129 12.1904C13.214 11.1909 14.5718 10.6294 15.9875 10.6294C17.4033 10.6294 18.761 11.1909 19.7621 12.1904C20.7632 13.19 21.3256 14.5456 21.3256 15.9591C21.3256 17.3727 20.7632 18.7283 19.7621 19.7278C18.761 20.7274 17.4033 21.2889 15.9875 21.2889Z" fill="white"/>
</svg>
