<svg width="15" height="14" viewBox="0 0 15 14" fill="none" xmlns="http://www.w3.org/2000/svg">
<path d="M13.9476 4.525L10.2594 0.938999C9.96998 0.657737 9.5775 0.499778 9.1683 0.499872C8.7591 0.499966 8.3667 0.658104 8.07741 0.939499C7.78813 1.22089 7.62567 1.60249 7.62577 2.00035C7.62586 2.39821 7.78851 2.77974 8.07793 3.061L10.5865 5.5H1.54277C1.1336 5.5 0.741191 5.65803 0.451866 5.93934C0.162541 6.22064 0 6.60217 0 7C0 7.39782 0.162541 7.77936 0.451866 8.06066C0.741191 8.34196 1.1336 8.5 1.54277 8.5H10.5865L8.07793 10.939C7.78851 11.2203 7.62586 11.6018 7.62577 11.9996C7.62567 12.3975 7.78813 12.7791 8.07741 13.0605C8.3667 13.3419 8.7591 13.5 9.1683 13.5001C9.5775 13.5002 9.96998 13.3423 10.2594 13.061L13.9476 9.475C14.6216 8.81796 15 7.92791 15 7C15 6.07208 14.6216 5.18203 13.9476 4.525Z" fill="#222222"/>
</svg>
