<svg width="15" height="14" viewBox="0 0 15 14" fill="none" xmlns="http://www.w3.org/2000/svg">
<path d="M13.9476 4.52488L10.2594 0.938883C9.96998 0.657621 9.5775 0.499662 9.1683 0.499756C8.7591 0.49985 8.3667 0.657988 8.07741 0.939383C7.78813 1.22078 7.62567 1.60238 7.62577 2.00024C7.62586 2.39809 7.78851 2.77962 8.07793 3.06088L10.5865 5.49988H1.54277C1.1336 5.49988 0.741191 5.65792 0.451866 5.93922C0.162541 6.22053 0 6.60206 0 6.99988C0 7.39771 0.162541 7.77924 0.451866 8.06054C0.741191 8.34185 1.1336 8.49988 1.54277 8.49988H10.5865L8.07793 10.9389C7.78851 11.2201 7.62586 11.6017 7.62577 11.9995C7.62567 12.3974 7.78813 12.779 8.07741 13.0604C8.3667 13.3418 8.7591 13.4999 9.1683 13.5C9.5775 13.5001 9.96998 13.3421 10.2594 13.0609L13.9476 9.47488C14.6216 8.81785 15 7.9278 15 6.99988C15 6.07197 14.6216 5.18192 13.9476 4.52488Z" fill="#222222"/>
</svg>
